<?xml version="1.0" encoding="utf-8"?>
<!-- Generator: Adobe Illustrator 15.0.0, SVG Export Plug-In . SVG Version: 6.00 Build 0)  -->
<!DOCTYPE svg PUBLIC "-//W3C//DTD SVG 1.1//EN" "http://www.w3.org/Graphics/SVG/1.1/DTD/svg11.dtd">
<svg version="1.1" xmlns="http://www.w3.org/2000/svg" xmlns:xlink="http://www.w3.org/1999/xlink" x="0px" y="0px" width="432px"
	 height="432px" viewBox="0 0 432 432" enable-background="new 0 0 432 432" xml:space="preserve">
<g id="Layer_1">
</g>
<g id="Layer_2">
</g>
<g id="Layer_3">
</g>
<g id="Layer_4">
</g>
<g id="Layer_5">
</g>
<g id="Layer_6">
	<g>
		<path d="M216,304.032c-0.391,0.285-0.799,0.538-1.2,0.806c0.385,0.096,0.783,0.162,1.2,0.162s0.814-0.066,1.2-0.162
			C216.799,304.57,216.391,304.317,216,304.032z"/>
		<path d="M331.213,174.201l-2.41-11.372c-0.573-2.701-3.223-4.424-5.928-3.855l-44.687,9.466l-8.436-16.02
			c-0.864-1.642-2.567-2.67-4.424-2.67h-10.204l-11.544-43.288c-0.584-2.189-2.565-3.712-4.831-3.712h-3.417V71.083
			c0-2.761-2.238-5-5-5s-5,2.239-5,5v31.667H206.92V61.917c0-2.761-2.239-5-5-5s-5,2.239-5,5v40.833h-3.67
			c-2.265,0-4.248,1.523-4.831,3.712l-11.543,43.288H166.5c-1.856,0-3.56,1.028-4.424,2.67l-8.489,16.123l-45.171-9.569
			c-2.702-0.573-5.355,1.153-5.927,3.855l-2.41,11.372c-0.275,1.297-0.023,2.651,0.7,3.763c0.723,1.111,1.858,1.891,3.155,2.166
			l39.183,8.3l-6.97,13.236l-15.834,12.019c-1.933,1.467-2.533,4.111-1.424,6.269l41.2,80.13c4.354-0.947,8.394-3.047,11.697-6.175
			c1.929-1.826,4.947-1.826,6.876,0c4.603,4.358,10.623,6.759,16.951,6.759c6.328,0,12.348-2.4,16.951-6.759
			c1.928-1.826,4.947-1.826,6.875,0c4.603,4.358,10.623,6.759,16.951,6.759s12.349-2.4,16.951-6.759
			c1.928-1.826,4.947-1.826,6.875,0c3.304,3.128,7.343,5.228,11.696,6.175l41.201-80.13c1.11-2.158,0.51-4.802-1.424-6.269
			l-16.119-12.234l-6.91-13.123l38.698-8.198c1.298-0.275,2.433-1.054,3.155-2.166C331.236,176.852,331.487,175.498,331.213,174.201
			z M262.312,159.75l17.808,29.973l-39.49-29.973H262.312z M169.518,159.75h21.852l-36.399,27.627L169.518,159.75z M211,243.188
			l-60.398,16.578l-20.902-40.653L211,157.406V243.188z M219.022,143.351c-0.041-0.031-0.086-0.051-0.127-0.081
			c-0.098-0.069-0.199-0.129-0.302-0.191c-0.159-0.097-0.319-0.187-0.486-0.264c-0.107-0.05-0.215-0.096-0.327-0.139
			c-0.185-0.07-0.371-0.126-0.562-0.174c-0.103-0.026-0.203-0.056-0.308-0.075c-0.299-0.055-0.601-0.091-0.904-0.091
			c-0.002,0-0.004,0-0.007,0c-0.002,0-0.003,0-0.005,0c-0.304,0-0.606,0.036-0.905,0.091c-0.106,0.02-0.207,0.05-0.31,0.076
			c-0.19,0.048-0.376,0.104-0.561,0.174c-0.111,0.043-0.22,0.089-0.327,0.139c-0.167,0.078-0.329,0.168-0.489,0.266
			c-0.101,0.062-0.201,0.12-0.296,0.188c-0.042,0.03-0.088,0.051-0.13,0.083l-8.554,6.492c-0.3-0.056-0.606-0.093-0.923-0.093
			h-16.275l9.867-37h37.817l9.867,37h-16.446c-0.265,0-0.52,0.038-0.772,0.078L219.022,143.351z M302.301,219.112l-20.903,40.653
			L221,243.188v-85.782L302.301,219.112z"/>
	</g>
	<path d="M317.943,314.667c-7.396,0-14.49-2.33-20.389-6.635c-5.898,4.305-12.993,6.635-20.389,6.635s-14.49-2.33-20.389-6.635
		c-5.898,4.305-12.993,6.635-20.389,6.635s-14.49-2.33-20.389-6.635c-5.899,4.305-12.993,6.635-20.389,6.635
		c-7.396,0-14.49-2.33-20.389-6.635c-5.899,4.305-12.993,6.635-20.389,6.635s-14.49-2.33-20.389-6.635
		c-5.899,4.305-12.993,6.635-20.389,6.635c-2.761,0-5-2.238-5-5s2.239-5,5-5c6.329,0,12.349-2.4,16.951-6.759
		c1.929-1.826,4.947-1.826,6.876,0c4.603,4.358,10.623,6.759,16.951,6.759s12.348-2.4,16.951-6.759c1.929-1.826,4.947-1.826,6.876,0
		c4.603,4.358,10.623,6.759,16.951,6.759c6.328,0,12.348-2.4,16.951-6.759c1.928-1.826,4.947-1.826,6.875,0
		c4.603,4.358,10.623,6.759,16.951,6.759s12.349-2.4,16.951-6.759c1.928-1.826,4.947-1.826,6.875,0
		c4.603,4.358,10.623,6.759,16.951,6.759s12.349-2.4,16.951-6.759c1.928-1.826,4.947-1.826,6.875,0
		c4.603,4.358,10.623,6.759,16.951,6.759c2.762,0,5,2.238,5,5S320.705,314.667,317.943,314.667z"/>
</g>
</svg>
